<?xml version="1.0" encoding="UTF-8" standalone="no"?>
<!-- Created with Inkscape (http://www.inkscape.org/) -->

<svg
   xmlns:dc="http://purl.org/dc/elements/1.1/"
   xmlns:cc="http://creativecommons.org/ns#"
   xmlns:rdf="http://www.w3.org/1999/02/22-rdf-syntax-ns#"
   xmlns:svg="http://www.w3.org/2000/svg"
   xmlns="http://www.w3.org/2000/svg"
   xmlns:sodipodi="http://sodipodi.sourceforge.net/DTD/sodipodi-0.dtd"
   xmlns:inkscape="http://www.inkscape.org/namespaces/inkscape"
   width="60mm"
   height="70mm"
   viewBox="0 0 60 70"
   version="1.1"
   id="svg3908"
   inkscape:version="0.92.1 r15371"
   sodipodi:docname="material.svg">
  <defs
     id="defs3902" />
  <sodipodi:namedview
     id="base"
     pagecolor="#ffffff"
     bordercolor="#666666"
     borderopacity="1.0"
     inkscape:pageopacity="0.0"
     inkscape:pageshadow="2"
     inkscape:zoom="1.4"
     inkscape:cx="173.96671"
     inkscape:cy="169.88255"
     inkscape:document-units="mm"
     inkscape:current-layer="layer1"
     showgrid="false"
     inkscape:window-width="1366"
     inkscape:window-height="706"
     inkscape:window-x="-8"
     inkscape:window-y="-8"
     inkscape:window-maximized="1" />
  <metadata
     id="metadata3905">
    <rdf:RDF>
      <cc:Work
         rdf:about="">
        <dc:format>image/svg+xml</dc:format>
        <dc:type
           rdf:resource="http://purl.org/dc/dcmitype/StillImage" />
        <dc:title></dc:title>
      </cc:Work>
    </rdf:RDF>
  </metadata>
  <g
     inkscape:label="Layer 1"
     inkscape:groupmode="layer"
     id="layer1"
     transform="translate(0,-227)">
    <ellipse
       class="cls-1"
       cx="30.674002"
       cy="294.67355"
       rx="15.769166"
       ry="1.4816667"
       id="ellipse801"
       style="fill:#e0e0e0;stroke-width:0.26458332" />
    <path
       class="cls-3"
       d="m 20.725666,231.72918 c 5.3975,0 6.693958,7.19667 17.356667,7.19667 6.720416,0 7.117286,-2.77813 10.212916,-2.77813 1.27,0 1.98437,2.43417 1.98437,4.04813 0,6.40291 -1.64041,13.54666 -0.58208,13.54666 1.40229,0 7.06438,-3.67771 8.54604,-3.67771 1.40229,0 1.34938,1.0848 1.34938,1.69334 0,0.60854 0.42333,11.19187 -13.91709,19.55271 -0.635,0.37041 -3.6777,13.59958 -14.393328,13.59958 -7.170208,0 -12.594167,-3.86292 -14.684375,-13.14979 -0.423333,-1.905 -15.71624948,-7.9375 -15.71624948,-21.24604 0,-2.91042 0.74083298,-4.52438 1.85208298,-4.52438 2.831042,0 8.8635415,4.73604 11.4564585,4.73604 2.248958,0 1.878541,-4.89479 1.878541,-6.37646 0.05292,-1.4552 -0.07938,-12.62062 4.656667,-12.62062 z"
       id="path919"
       inkscape:connector-curvature="0"
       style="fill:#78c800;stroke-width:0.26458332" />
    <path
       class="cls-5"
       d="m 45.596499,241.14835 c -0.97896,0 -1.21708,0.50271 -1.56104,0.18521 -0.15875,-0.15875 0.68791,-0.52917 0.68791,-0.68792 0,-0.0794 -0.13229,-0.0529 -0.29104,-0.0529 -1.03187,0 -3.04271,1.48166 -3.30729,1.48166 -0.13229,0 -0.3175,0.0265 -0.3175,-0.15875 0,-0.42333 1.42875,-0.79375 0.44979,-0.79375 -0.97896,0 -2.460621,1.27 -3.968746,1.27 -3.148542,0 -5.662084,-2.46062 -5.662084,-1.85208 0,0.21167 0.370417,0.55563 0.608542,1.00542 0,0 0.132292,0.66146 -0.132292,0.39687 -2.883958,-2.88396 -5.767916,-3.57187 -5.767916,-3.57187 0,0 -0.211667,0 -0.211667,0.10583 0,0.3175 0.635,0.76729 0.635,0.89958 a 0.19579167,0.19579167 0 0 1 -0.211667,0.21167 c -0.608541,0 -1.058333,-1.19062 -3.518958,-1.19062 -3.730625,0 -4.7625,5.87375 -4.7625,10.6627 0,6.82625 4.392083,8.99584 8.016875,8.99584 2.883958,0 5.953125,-1.69334 7.249583,-4.18042 l 3.836459,0.29104 c 0,0 1.878541,3.57188 5.265211,3.57188 3.175,0 5.92666,-2.01084 5.92666,-8.96938 -0.0529,-7.3025 -1.98437,-7.62 -2.96333,-7.62 z"
       id="path921"
       inkscape:connector-curvature="0"
       style="fill:#8ee000;stroke-width:0.26458332" />
    <ellipse
       class="cls-6"
       cx="25.832113"
       cy="249.37689"
       rx="4.8947916"
       ry="5.953125"
       id="ellipse923"
       style="fill:#ffffff;stroke-width:0.26458332" />
    <path
       class="cls-6"
       d="m 46.707749,250.5146 c -0.15875,2.88395 -2.11667,5.18583 -4.36563,5.10646 -2.24895,-0.0794 -3.968745,-2.48709 -3.809995,-5.37105 0.15875,-2.88396 2.116665,-5.18583 4.365625,-5.10646 2.24896,0.0794 3.96875,2.46063 3.81,5.37105 z"
       id="path925"
       inkscape:connector-curvature="0"
       style="fill:#ffffff;stroke-width:0.26458332" />
    <ellipse
       class="cls-7"
       cx="25.726309"
       cy="249.37689"
       rx="2.69875"
       ry="3.2808332"
       id="ellipse927"
       style="fill:#3f3f3f;stroke-width:0.26458332" />
    <ellipse
       class="cls-6"
       cx="23.980032"
       cy="247.31314"
       rx="1.2700001"
       ry="1.3758333"
       id="ellipse929"
       style="fill:#ffffff;stroke-width:0.26458332" />
    <path
       class="cls-7"
       d="m 44.855669,250.5146 c -0.1323,1.69333 -1.27,3.0427 -2.54,2.96333 -1.27,-0.0794 -2.2225,-1.48167 -2.09021,-3.20146 0.13229,-1.71979 1.27,-3.04271 2.54,-2.96333 1.27,0.0794 2.2225,1.48166 2.09021,3.20146 z"
       id="path931"
       inkscape:connector-curvature="0"
       style="fill:#3f3f3f;stroke-width:0.26458332" />
    <path
       class="cls-4"
       d="m 32.102749,256.25606 c 0,0 -0.79375,6.58812 1.375834,6.5352 2.169583,-0.0529 2.06375,-3.20145 2.06375,-3.25437 z"
       id="path933"
       inkscape:connector-curvature="0"
       style="fill:#71b200;stroke-width:0.26458332" />
    <path
       class="cls-6"
       d="m 42.183369,248.53022 a 1.1959167,1.1959167 0 0 1 -1.08479,1.29646 c -0.60854,0.0265 -1.13771,-0.52917 -1.16416,-1.21708 a 1.1959167,1.1959167 0 0 1 1.08479,-1.29646 c 0.635,-0.0265 1.13771,0.50271 1.16416,1.21708 z"
       id="path935"
       inkscape:connector-curvature="0"
       style="fill:#ffffff;stroke-width:0.26458332" />
    <path
       class="cls-4"
       d="m 57.158789,260.30418 c -2.83104,4.1275 -8.75771,7.40833 -9.73667,7.40833 -1.11125,0 -0.34395,-1.16416 -1.1377,-1.16416 -0.71438,0 -0.84667,12.3825 -13.54667,12.3825 -14.234583,0 -13.917083,-14.73729 -15.292916,-14.73729 -1.005417,0 -0.343959,2.16958 -1.42875,2.16958 -3.598334,0 -13.2027085,-7.27604 -14.7902085,-12.46188 2.248959,10.98021 15.0018745,16.16605 15.3722915,17.9123 2.090208,9.26041 7.540625,13.14979 14.684375,13.14979 10.715628,0 13.758328,-13.22917 14.393328,-13.59959 5.95313,-3.51895 9.44563,-7.51416 11.48292,-11.05958 z"
       id="path937"
       inkscape:connector-curvature="0"
       style="fill:#71b200;stroke-width:0.26458332" />
    <path
       class="cls-8"
       d="m 32.102749,255.56814 c 0,0 -0.47625,4.81542 1.878542,4.81542 2.354792,0 3.518958,-1.93146 3.518958,-3.65125 0,-1.7198 -5.3975,-1.16417 -5.3975,-1.16417 z"
       id="path939"
       inkscape:connector-curvature="0"
       style="fill:#f49000;stroke-width:0.26458332" />
    <path
       class="cls-9"
       d="m 35.621708,252.7371 c 1.719791,0 2.989791,1.98437 2.989791,3.94229 0,1.95792 -1.613958,3.96875 -2.116666,3.96875 -0.502709,0 -4.418542,-3.59833 -4.418542,-5.13292 0,-1.53458 1.481667,-2.77812 3.545417,-2.77812 z"
       id="path941"
       inkscape:connector-curvature="0"
       style="fill:#ffc200;stroke-width:0.26458332" />
    <ellipse
       class="cls-10"
       cx="-251.51506"
       cy="49.594738"
       rx="0.60854167"
       ry="1.1377084"
       transform="rotate(-86.83)"
       id="ellipse943"
       style="fill:#fff3b8;stroke-width:0.26458332" />
    <path
       class="cls-2"
       d="m 29.721499,286.7096 c 1.825625,-0.10584 3.148542,0.29104 3.227917,1.93146 0.07937,1.64041 -2.143125,2.06375 -3.33375,2.14312 -1.190625,0.0794 -2.54,-0.47625 -2.592917,-1.66687 -0.05292,-1.19063 1.058334,-2.32834 2.69875,-2.40771 z m 10.74208,-3.38667 c 1.74625,-0.0794 1.79917,1.79917 1.79917,1.95792 0,0.15875 0.18521,1.98437 -2.883958,2.14312 -1.931458,0.10584 -1.878542,-0.76729 -1.905,-1.19062 -0.02646,-0.42334 0.767292,-2.77813 2.989788,-2.91042 z"
       id="path945"
       inkscape:connector-curvature="0"
       style="fill:#d98500;stroke-width:0.26458332" />
    <path
       class="cls-14"
       d="m 36.415458,244.56147 c 0.714375,0 9.683751,-6.11187 13.467291,-6.64104 -0.34396,-0.9525 -0.87313,-1.69333 -1.5875,-1.69333 -3.09563,0 -3.46604,2.77812 -10.212916,2.77812 -10.662709,0 -11.959167,-7.19666 -17.356667,-7.19666 -1.137708,0 -2.010833,0.66145 -2.645833,1.66687 5.688541,0.89958 17.62125,11.08604 18.335625,11.08604 z"
       id="path947"
       inkscape:connector-curvature="0"
       style="opacity:0.1;isolation:isolate;stroke-width:0.26458332" />
    <path
       class="cls-24"
       d="m 25.567541,231.41168 c 0,0 -0.608542,1.74625 -0.608542,2.24896 0,0.50271 10.054167,8.89 11.27125,8.89 1.217084,0 10.795,-5.68854 10.795,-6.08542 0,-0.39687 0.0265,-2.2225 0.0265,-2.2225 0,0 -4.36563,-1.77271 -4.55083,-1.85208 -0.18521,-0.0794 -4.577295,-0.3175 -5.106462,-0.29104 -0.529167,0.0265 -5.053542,-0.58209 -5.635625,-0.74084 -0.582083,-0.15875 -4.233333,-1.42875 -4.524375,-1.42875 -0.291042,0 -2.592917,0.21167 -2.592917,0.21167 z"
       id="path949"
       inkscape:connector-curvature="0"
       style="fill:#0a0a0a;stroke-width:0.26458332" />
    <path
       class="cls-25"
       d="m 16.730458,228.07793 19.52625,-0.15875 18.547291,5.26521 -0.15875,1.29646 -17.568333,1.08479 -20.505208,-6.45583 z"
       id="path951"
       inkscape:connector-curvature="0"
       style="fill:#1e1e1e;stroke-width:0.26458332" />
    <path
       class="cls-25"
       d="m 16.730458,228.07793 19.52625,-0.15875 18.547291,5.26521 -0.15875,1.29646 -17.568333,1.08479 -20.505208,-6.45583 z"
       id="path953"
       inkscape:connector-curvature="0"
       style="fill:#1e1e1e;stroke-width:0.26458332" />
    <path
       d="m 54.803999,233.18439 -5.47688,-1.56104 -1.61395,0.68791 -2.91042,-0.47625 c 0,0 -1.98438,0.23813 -2.11667,0.29105 -0.13229,0.0529 -1.32291,0.84666 -1.40229,0.84666 -0.0794,0 -2.169581,0.21167 -2.169581,0.21167 l -1.905,-0.0794 -0.132292,2.40771 17.541873,-1.05833 z"
       id="path955"
       inkscape:connector-curvature="0"
       style="stroke-width:0.26458332" />
    <path
       class="cls-26"
       d="m 17.497749,228.07793 19.737917,6.00604 17.303753,-0.97896 -18.282711,-5.18583 z"
       id="path957"
       inkscape:connector-curvature="0"
       style="fill:#282828;stroke-width:0.26458332" />
    <path
       class="cls-27"
       d="m 38.108791,229.8771 a 21.754042,21.754042 0 0 0 5.926668,2.06375 c 3.175,0.55562 1.5875,0.66146 1.5875,0.66146 l -3.88938,-0.23813 -2.96333,-0.635 -1.825625,-0.34396 -1.402291,-0.42333 v -0.71438 a 7.0511458,7.0511458 0 0 1 1.005416,-0.26458 z"
       id="path959"
       inkscape:connector-curvature="0"
       style="fill:#d68f00;stroke-width:0.26458332" />
    <path
       class="cls-28"
       d="m 58.243579,240.80439 c -0.74083,0 -1.05833,-0.34396 -1.05833,-0.47625 0,-0.13229 0.0265,-0.26458 0.29104,-0.26458 0.82021,0 1.00542,-0.60855 1.00542,-0.71438 0,-0.10583 -0.0265,-0.29104 -0.21167,-0.29104 -0.47625,0 -1.85208,0.635 -2.46062,0.635 a 1.3784792,1.3784792 0 0 1 -0.84667,-0.34396 1.4022917,1.4022917 0 0 0 -1.19063,-2.14312 1.7859375,1.7859375 0 0 0 -0.37041,0.0529 c 0,0 -1.87854,-0.9525 -2.43417,-2.43416 -0.18521,-0.50271 -0.18521,-1.74625 -1.48167,-2.11667 -1.29645,-0.37042 -12.567703,-1.79917 -13.467286,-2.06375 -0.899584,-0.26458 -1.931459,-1.53458 -2.037292,-0.50271 0,2.59292 14.393328,2.80458 15.292918,3.51896 a 0.97895833,0.97895833 0 0 1 0.44979,0.87312 c 0,0.58209 0.76729,2.32834 2.8575,3.38667 a 1.3599583,1.3599583 0 0 0 -0.15875,0.66146 1.3758333,1.3758333 0 0 0 1.21708,1.37583 c -0.0265,0.26459 -0.0265,0.52917 -0.0265,0.76729 0,0.52917 0.21167,2.24896 2.51355,2.24896 2.30187,0 2.64583,-1.66687 2.64583,-1.85208 0,-0.18521 0.21167,-0.3175 -0.52917,-0.3175 z"
       id="path961"
       inkscape:connector-curvature="0"
       style="fill:#fdc12d;stroke-width:0.26458332" />
    <circle
       class="cls-28"
       cx="14.719619"
       cy="282.52917"
       r="1.3758333"
       id="circle963"
       style="fill:#fdc12d;stroke-width:0.26458332" />
    <ellipse
       cx="-226.04617"
       cy="56.337219"
       rx="0.79374999"
       ry="2.2489583"
       transform="rotate(-84.96)"
       id="ellipse965"
       style="stroke-width:0.26458332" />
    <path
       class="cls-14"
       d="m 49.829829,253.71605 c -0.0794,0.15875 -0.13229,0.3175 -0.21166,0.47625 -4.2598,9.23396 -15.848545,14.97542 -16.801045,14.97542 a 6.6145833,6.6145833 0 0 1 -2.090208,-0.44979 c 0,0 -0.555625,2.2225 -0.449792,2.27542 0.105834,0.0529 2.619375,1.24354 2.619375,1.24354 l 8.12271,-1.5875 4.15396,-3.73063 2.98979,-3.75708 2.72521,-4.55083 0.0529,-3.14854 c 0,0 0.3175,-1.13771 0.60854,-2.3548 a 8.0248125,8.0248125 0 0 1 -1.71979,0.60854 z"
       id="path967"
       inkscape:connector-curvature="0"
       style="opacity:0.1;isolation:isolate;stroke-width:0.26458332" />
    <path
       class="cls-28"
       d="m 13.740666,282.5821 a 2.0214167,2.0214167 0 0 1 -1.5875,0.84666 c -1.031874,0 -1.084791,-0.42333 -1.349374,-0.42333 -0.264583,0 -0.343958,0.13229 -0.343958,0.29104 0,0.15875 0.582083,0.68792 1.455207,0.68792 0.291042,0 0.582083,-0.0265 0.582083,0.10583 0,0.13229 -0.370416,0.37042 -0.9525,0.37042 -0.582082,0 -1.217082,0.13229 -1.217082,0.89958 0,0.76729 1.005417,1.42875 2.063749,1.42875 1.058333,0 2.725208,-1.37583 2.725208,-3.20146 0,-1.82562 -1.375833,-1.00541 -1.375833,-1.00541 z"
       id="path969"
       inkscape:connector-curvature="0"
       style="fill:#fdc12d;stroke-width:0.26458332" />
    <path
       class="cls-25"
       d="m 7.3377495,246.49293 c 1.984375,0 4.5772915,3.86292 7.5935415,3.86292 0,2.93687 13.123333,19.26166 18.838333,19.26166 4.7625,0 15.954375,-12.01208 15.954375,-16.1925 0.21167,-0.26458 3.65125,-2.69875 4.445,-2.69875 0.79375,0 1.87854,2.40771 1.95792,4.47146 0.0794,1.98438 0.58208,11.19188 -1.19063,14.44625 -1.11125,1.77271 -7.32896,1.00542 -8.78417,2.16959 -3.54541,3.41312 -0.3175,11.1125 -11.271245,11.1125 -9.763125,0 -17.012708,-3.14855 -19.288125,-5.55625 -0.661458,-0.82021 1.005417,-3.91584 0,-5.00063 -2.54,-2.14312 -9.3662495,-1.03187 -10.7156245,-1.93146 -0.502708,-0.47625 -0.582083,-1.48166 -0.582083,-2.75166 0,-1.27 0.555625,-6.08542 0.555625,-6.08542 l 1.878542,2.2225 c 0,0 0.846666,-3.73063 0.846666,-6.95854 0,-3.22792 0.05292,-8.73125 0.05292,-8.73125 l -1.058333,-0.55563 c 0,-0.0265 0.396875,-1.08479 0.767291,-1.08479 z"
       id="path971"
       inkscape:connector-curvature="0"
       style="fill:#1e1e1e;stroke-width:0.26458332" />
    <path
       d="m 19.349833,278.74564 c 0,-0.87313 0.635,-3.70417 0.635,-9.02229 -1.084792,-0.76729 -1.058334,-1.87854 -1.957917,-2.2225 0.291042,-0.87313 0.873125,-4.86834 -0.105833,-7.75229 -0.978959,-2.88396 -1.217084,-3.57188 -1.217084,-3.57188 l -0.873125,-1.79917 -0.687916,-1.56104 -0.105834,-1.34937 0.02646,-0.4498 a 2.5849792,2.5849792 0 0 1 -0.132293,-0.68791 3.286125,3.286125 0 0 1 -0.873125,-0.10584 c 0,0.3175 -0.02646,0.79375 -0.02646,1.37584 0,3.22792 3.148541,8.09625 3.148541,12.83229 0,1.13771 -0.211666,2.61938 -0.661458,2.59292 -1.825623,-0.18521 -6.5616645,-2.11667 -9.4720805,-4.73604 -0.15875,0.87312 -0.291042,1.4552 -0.291042,1.4552 l -1.878542,-2.2225 c 0,0 -0.555625,4.81542 -0.555625,6.08542 0,1.27 0.07937,2.27542 0.582084,2.75167 1.349375,0.92604 8.1756245,-0.21167 10.7156245,1.93146 1.005416,1.05833 -0.661459,4.18041 0,5.00062 0.79375,0.84667 2.196041,1.77271 4.074583,2.61938 a 2.492375,2.492375 0 0 1 -0.343958,-1.16417 z m 31.988126,-12.22375 c -0.0794,-0.79375 -0.0265,-2.19604 -0.0794,-2.32833 -0.0529,-0.1323 -0.13229,-2.91042 -0.13229,-2.91042 l 0.10583,-2.8575 -0.60854,-3.14854 -0.92604,-1.69334 c -0.0265,0.60854 -0.29105,1.37584 -0.71438,2.24896 0.29104,0.60854 0.74083,1.85209 0.74083,3.99521 0,3.28083 0.0794,6.64104 -0.5027,7.3025 -0.58209,0.66146 -1.79917,1.05833 -2.27542,0.60854 -0.47625,-0.44979 -1.32292,-0.29104 -2.32833,2.35479 -0.9525,2.56646 -3.4925,10.00125 -7.143753,12.67355 7.831663,-1.16417 5.423953,-7.83167 8.678333,-10.9273 1.42875,-1.16416 7.64646,-0.39687 8.78417,-2.16958 0.71437,-1.32292 1.05833,-3.62479 1.21708,-6.0325 a 13.345583,13.345583 0 0 1 -4.81542,2.88396 z"
       id="path973"
       inkscape:connector-curvature="0"
       style="stroke-width:0.26458332" />
    <path
       d="m 5.2739995,270.59647 c 0.9525,-1.27 1.5875,-6.21771 1.852084,-8.73125 -0.185209,1.16417 -0.370417,1.93146 -0.370417,1.93146 l -1.878542,-2.2225 c 0,0 -0.555625,4.81542 -0.555625,6.08542 0,1.27 0.07937,2.27541 0.582084,2.75166 a 0.968375,0.968375 0 0 0 0.370416,0.18521 z"
       id="path975"
       inkscape:connector-curvature="0"
       style="stroke-width:0.26458332" />
    <path
       class="cls-28"
       d="m 49.432959,252.20793 c 0.82021,0 2.59291,4.73604 2.59291,10.39813 0,7.32895 -3.30729,12.43541 -3.30729,16.72166 0,1.85209 0.55563,3.28084 1.03188,3.59834 0.47625,0.3175 -0.29104,0.60854 -0.29104,0.60854 l -1.11125,-0.23813 a 11.641667,11.641667 0 0 1 -0.89959,-4.28625 c 0,-4.55083 3.175,-9.07521 3.175,-16.13958 0,-5.97958 -1.34937,-8.83709 -1.34937,-9.41917 -0.0265,-1.21708 0.10583,-1.24354 0.15875,-1.24354 z"
       id="path977"
       inkscape:connector-curvature="0"
       style="fill:#fdc12d;stroke-width:0.26458332" />
    <circle
       class="cls-28"
       cx="49.168385"
       cy="283.53461"
       r="1.349375"
       id="circle979"
       style="fill:#fdc12d;stroke-width:0.26458332" />
    <path
       class="cls-28"
       d="m 50.041499,283.77272 c 0,0 0.15875,0.42334 0.97896,0.42334 0.82021,0 1.32291,-0.7673 1.61396,-0.7673 0.29104,0 0.3175,0.0794 0.3175,0.23813 0,0.15875 -0.82021,0.66146 -0.82021,0.76729 0,0.10583 0.68791,-0.29104 1.03187,-0.29104 a 0.3571875,0.3571875 0 0 1 0.39688,0.39687 c 0,0.15875 0.0265,0.55563 -1.24354,0.55563 -0.29105,0 -0.37042,-0.10583 -0.47625,-0.10583 -0.10584,0 0.0529,0.39687 0.71437,0.39687 0.66146,0 0.82021,0.0265 0.82021,0.39688 0,0.37041 -0.47625,2.14312 -2.06375,2.14312 -1.5875,0 -2.38125,-2.32833 -2.38125,-3.175 0,-0.84667 1.11125,-0.97896 1.11125,-0.97896 z M 15.010666,249.2446 c -0.687917,0 -0.661458,1.69333 -0.661458,1.85208 0,4.15396 4.683125,7.38188 4.683125,15.31938 0,7.9375 -4.60375,9.525 -4.60375,13.73187 0,4.20688 0.502708,2.61938 0.502708,2.61938 l 0.582083,-0.58209 v -2.06375 c 0,-3.70416 4.92125,-5.60916 4.92125,-13.89062 0,-8.28146 -4.92125,-12.77938 -4.92125,-15.63688 0,-0.52917 0.185209,-0.68792 0.185209,-0.97896 -0.05292,-0.29104 -0.211667,-0.37041 -0.687917,-0.37041 z"
       id="path981"
       inkscape:connector-curvature="0"
       style="fill:#fdc12d;stroke-width:0.26458332" />
    <path
       class="cls-29"
       d="m 16.042541,282.18522 a 1.36525,1.36525 0 0 1 -2.645833,0 1.5478125,1.5478125 0 0 0 -0.05292,0.34396 1.0980208,1.0980208 0 0 0 0.07938,0.42333 1.4657917,1.4657917 0 0 1 -0.211667,0.15875 2.1775208,2.1775208 0 0 0 0.661459,1.32292 c 0.05292,0.13229 0.740833,1.69333 -1.799167,1.69333 -1.719791,0 -1.666874,-0.68791 -1.666874,-0.68791 0.05292,0.76729 1.031875,1.37583 2.063749,1.37583 0.79375,0 1.931458,-0.76729 2.434167,-1.93146 0.02646,-0.0529 0.05292,-0.13229 0.07938,-0.18521 a 3.0241875,3.0241875 0 0 0 0.185201,-0.84666 1.397,1.397 0 0 0 0.978958,-1.32292 2.4526875,2.4526875 0 0 1 -0.105833,-0.34396 z m 35.348328,4.84188 c -0.79375,0 -1.50812,-1.53459 -1.7727,-2.24896 a 1.3440833,1.3440833 0 0 0 0.89958,-1.27 0.9921875,0.9921875 0 0 0 -0.0265,-0.29104 1.3070417,1.3070417 0 0 1 -1.29646,1.03187 1.3229167,1.3229167 0 0 1 -1.29646,-1.03187 1.0847917,1.0847917 0 0 0 -0.0265,0.29104 1.3387917,1.3387917 0 0 0 1.11125,1.32292 c 0.0794,0.92604 0.84667,3.0427 2.38125,3.0427 1.00542,0 1.56104,-0.68791 1.82563,-1.32291 a 3.7041667,3.7041667 0 0 1 -1.79917,0.47625 z m 1.03188,-48.26 v 0.10583 a 0.09789583,0.09789583 0 0 0 0.0265,0.0794 v 0.0265 c 0,0.0265 0.0265,0.0794 0.0265,0.10583 a 0.02645833,0.02645833 0 0 0 0.0265,0.0265 c 0,0.0265 0.0265,0.0529 0.0265,0.0794 a 0.02645833,0.02645833 0 0 0 0.0265,0.0265 0.09260417,0.09260417 0 0 0 0.0265,0.0529 0.02645833,0.02645833 0 0 0 0.0265,0.0265 c 0.0265,0.0265 0.0265,0.0529 0.0529,0.0794 l 0.0265,0.0265 0.0529,0.0529 0.0265,0.0265 0.0529,0.0529 0.0265,0.0265 c 0.0265,0.0265 0.0529,0.0529 0.0794,0.0529 l 0.0265,0.0265 c 0.0265,0.0265 0.0529,0.0265 0.0794,0.0529 l 0.0265,0.0265 a 0.08202083,0.08202083 0 0 0 0.0529,0.0265 0.02645833,0.02645833 0 0 1 0.0265,0.0265 1.2647083,1.2647083 0 0 0 0.47625,0.15875 c -0.0265,0.26455 -0.0265,0.52913 -0.0265,0.76726 0,0.52916 0.21167,2.24895 2.51354,2.24895 2.11667,0 2.59292,-1.42875 2.64583,-1.7727 -0.13229,0.34395 -0.635,0.92604 -2.30187,0.92604 -1.85208,0 -2.14313,-1.53459 -2.16958,-2.2225 a 1.5054792,1.5054792 0 0 0 0.71437,-0.55563 c 0.0265,-0.0265 0.0265,-0.0529 0.0529,-0.0794 v -0.0265 c 0,-0.0265 0.0265,-0.0529 0.0265,-0.0794 v -0.0265 c 0,-0.0265 0.0265,-0.0529 0.0265,-0.0794 v -0.0265 a 0.09260417,0.09260417 0 0 1 0.0265,-0.0529 v -0.0265 c 0,-0.0265 0,-0.0529 0.0265,-0.0529 v -0.47623 a 1.1456458,1.1456458 0 0 0 -0.0265,-0.13229 1.36525,1.36525 0 0 1 -1.34937,1.08479 1.3917083,1.3917083 0 0 1 -1.34938,-1.08479 1.1456458,1.1456458 0 0 1 -0.0265,0.13229 v 0.26458 c 0.0265,0.0794 0.0265,0.0794 0.0265,0.10584 z"
       id="path983"
       inkscape:connector-curvature="0"
       style="opacity:0.5;isolation:isolate;fill:#f29b00;stroke-width:0.26458332" />
  </g>
</svg>
